<svg id="Layer_1" data-name="Layer 1" xmlns="http://www.w3.org/2000/svg" viewBox="0 0 514.77 103.62"><defs><style>.cls-1{fill:#fff;}</style></defs><path class="cls-1" d="M.69,3.59,15.19.69V102H.69Z"/><path class="cls-1" d="M46.09,69.76c0,14.33,2.59,20.94,14,20.94,11.11,0,17.06-9.67,17.06-21.9V34.66h14.5V102H77.17V92.14c-4,6.77-10.47,10.79-19.8,10.79-19,0-26.09-11.91-26.09-33V34.66H46.09Z"/><path class="cls-1" d="M156.71,63c0-11.43-4.83-17.07-12.55-17.07S131,52.21,131,62.36V102H116.46V61.39c0-11.27-5.32-15.46-12.88-15.46-7.09,0-12.88,4.51-12.88,16.43V102H76.37V34.66H90.53v7.57c4.35-6.76,10.64-8.86,16.91-8.86,7.73,0,14.18,3.39,18.68,11.11a22.34,22.34,0,0,1,19.65-11.11c14.16,0,25.59,8.38,25.59,29V102H156.71Z"/><path class="cls-1" d="M195.36,22.26c-4.83,0-8.7-3.06-8.7-8.21,0-5,3.87-7.89,8.7-7.89,5,0,8.86,2.9,8.86,8.05C204.22,19.2,200.35,22.26,195.36,22.26Zm-7.25,12.4h14.66V102H188.11Z"/><path class="cls-1" d="M251.72,33.7c18.83,0,29.31,9.17,31.56,10.95V102H268.94V90.37a23,23,0,0,1-20.61,12.4c-20.28,0-30.91-14.81-30.91-34.29S229.66,33.7,251.72,33.7Zm-1.78,56.19c11.6,0,19-10.3,19-27.21V50.92c-1.6-1.28-6.75-4.5-16.58-4.5C239,46.42,232.24,56.88,232.24,69,232.24,80.87,237.39,89.89,249.94,89.89Z"/><path class="cls-1" d="M297.29,68.48c0-19.33,12.56-34.78,32.2-34.78a41.73,41.73,0,0,1,19,5.15V3.75L362.82.69V102H348.49V90.37a24.28,24.28,0,0,1-21.42,12.4C307.59,102.77,297.29,88,297.29,68.48ZM329,89.89c11.43,0,19.48-10.3,19.48-27.21v-10a26.11,26.11,0,0,0-17.06-6.28C319,46.42,311.94,56.88,311.94,69,311.94,80.87,317.09,89.89,329,89.89Z"/><path class="cls-1" d="M487.09,33a27,27,0,1,1-27,27A27,27,0,0,1,487.09,33Z"/><path class="cls-1" d="M406.18,59.48a10.88,10.88,0,1,1-10.87-10.87A10.89,10.89,0,0,1,406.18,59.48Z"/><path class="cls-1" d="M449.38,59.94A16.25,16.25,0,1,1,433.14,43.7,16.26,16.26,0,0,1,449.38,59.94Z"/></svg>